HIERARCHY
ROOT Hips
{
	OFFSET 0.00000 0.00000 0.00000
	CHANNELS 6 Xposition Yposition Zposition Zrotation Yrotation Xrotation 
	JOINT LHipJoint
	{
		OFFSET 0 0 0
		CHANNELS 3 Zrotation Yrotation Xrotation
		JOINT LeftHip
		{
			OFFSET 1.57358 -1.76629 0.73362
			CHANNELS 3 Zrotation Yrotation Xrotation
			JOINT LeftKnee
			{
				OFFSET 2.40600 -6.61045 0.00000
				CHANNELS 3 Zrotation Yrotation Xrotation
				JOINT LeftAnkle
				{
					OFFSET 2.66168 -7.31291 0.00000
					CHANNELS 3 Zrotation Yrotation Xrotation
					JOINT LeftToe
					{
						OFFSET 0.20870 -0.57341 2.12506
						CHANNELS 3 Zrotation Yrotation Xrotation
						End Site
						{
							OFFSET 0.00000 -0.00000 1.10557
						}
					}
				}
			}
		}
	}
	JOINT RHipJoint
	{
		OFFSET 0 0 0
		CHANNELS 3 Zrotation Yrotation Xrotation
		JOINT RightHip
		{
			OFFSET -1.49299 -1.76629 0.73362
			CHANNELS 3 Zrotation Yrotation Xrotation
			JOINT RightKnee
			{
				OFFSET -2.43663 -6.69460 0.00000
				CHANNELS 3 Zrotation Yrotation Xrotation
				JOINT RightAnkle
				{
					OFFSET -2.62959 -7.22474 0.00000
					CHANNELS 3 Zrotation Yrotation Xrotation
					JOINT RightToe
					{
						OFFSET -0.25784 -0.70841 2.21862
						CHANNELS 3 Zrotation Yrotation Xrotation
						End Site
						{
							OFFSET -0.00000 -0.00000 1.16452
						}
					}
				}
			}
		}
	}
	JOINT lowerback
	{
		OFFSET 0 0 0
		CHANNELS 3 Zrotation Yrotation Xrotation
		JOINT Chest
		{
			OFFSET -0.00034 2.12399 -0.25450
			CHANNELS 3 Zrotation Yrotation Xrotation
			JOINT Chest2
			{
				OFFSET 0.05594 2.14379 -0.03318
				CHANNELS 3 Zrotation Yrotation Xrotation
				JOINT lowerneck
				{
					OFFSET 0 0 0
					CHANNELS 3 Zrotation Yrotation Xrotation
					JOINT Neck
					{
						OFFSET -0.09835 1.62725 0.24211
						CHANNELS 3 Zrotation Yrotation Xrotation
						JOINT Head
						{
							OFFSET 0.10849 1.66041 -0.22648
							CHANNELS 3 Zrotation Yrotation Xrotation
							End Site
							{
								OFFSET 0.04385 1.68267 -0.10541
							}
						}
					}
				}
				JOINT LeftCollar
				{
					OFFSET 0 0 0
					CHANNELS 3 Zrotation Yrotation Xrotation
					JOINT LeftShoulder
					{
						OFFSET 3.29108 0.79398 -0.68179
CHANNELS 3 Zrotation Xrotation Yrotation
						JOINT LeftElbow
						{
OFFSET 0 -5.153100 -0.000000
CHANNELS 3 Zrotation Xrotation Yrotation
							JOINT LeftWrist
							{
OFFSET 0 -3.751380 -0.000000
CHANNELS 3 Zrotation Xrotation Yrotation
								JOINT lhand
								{
									OFFSET 0 0 0
CHANNELS 3 Zrotation Xrotation Yrotation
									JOINT LFingers
									{
OFFSET 0 -0.529170 0.000000
CHANNELS 3 Zrotation Xrotation Yrotation
										End Site
										{
OFFSET 0 -0.426630 0.000000
										}
									}
								}
								JOINT LThumb
								{
OFFSET 0 0.000000 0.000000
CHANNELS 3 Zrotation Xrotation Yrotation
									End Site
									{
OFFSET 0 -0.433150 0.433150
									}
								}
							}
						}
					}
				}
				JOINT RightCollar
				{
					OFFSET 0 0 0
					CHANNELS 3 Zrotation Yrotation Xrotation
					JOINT RightShoulder
					{
						OFFSET -3.07414 1.06285 -0.44338
CHANNELS 3 Zrotation Xrotation Yrotation
						JOINT RightElbow
						{
OFFSET 0 -5.296130 0.000000
CHANNELS 3 Zrotation Xrotation Yrotation
							JOINT RightWrist
							{
OFFSET 0 -3.761440 -0.000000
CHANNELS 3 Zrotation Xrotation Yrotation
								JOINT rhand
								{
									OFFSET 0 0 0
CHANNELS 3 Zrotation Xrotation Yrotation
									JOINT RFingers
									{
OFFSET 0 -0.747320 0.000000
CHANNELS 3 Zrotation Xrotation Yrotation
										End Site
										{
OFFSET 0 -0.602510 0.000000
										}
									}
								}
								JOINT RThumb
								{
OFFSET 0 0.000000 0.000000
CHANNELS 3 Zrotation Xrotation Yrotation
									End Site
									{
OFFSET 0 -0.611710 0.611710
									}
								}
							}
						}
					}
				}
			}
		}
	}
}
MOTION
Frames: 8
Frame Time: 0.008333333333333333
12.517500 16.371300 -29.517500 2.036900 -4.554700 2.343000 0.000000 0.000000 0.000000 -7.076500 -3.780700 -29.609100 20.424000 19.995700 91.239900 0.009400 -1.681900 3.170800 0.037400 1.248000 3.431400 0.000000 0.000000 0.000000 33.350800 5.640800 -14.712400 -6.339600 -14.749600 46.330000 -1.174900 -12.353100 -28.311200 -0.030300 -1.123900 3.089900 -0.038400 -0.604100 12.538600 3.747500 -0.592100 1.547900 4.072200 -0.256500 -5.366600 -7.609100 -1.981200 -15.238600 1.866900 -1.317600 8.349700 1.692700 -0.769100 5.051400 0.000000 -0.000000 0.000000 -3.371200 16.148100 -35.451600 80.225800 -59.635900 51.545700 22.554600 -20.617100 -7.698400 0.000000 0.000000 0.000000 -7.125000 0.000000 0.000000 -3.674900 38.283400 -0.608800 0.000000 -0.000000 0.000000 -8.391100 14.942100 34.939300 -112.695800 -57.961300 -79.520600 -15.210500 -0.875400 -25.841900 0.000000 0.000000 0.000000 7.125000 0.000000 -0.000000 8.792100 3.596400 8.323500
12.501025 16.368716 -29.402929 2.025787 -4.391092 2.430823 0.000000 0.000000 0.000000 -6.956244 -4.014666 -30.301350 20.384352 19.996325 91.123951 0.005890 -1.877209 2.203709 0.069919 0.377218 1.032043 0.000000 0.000000 0.000000 33.452320 5.374056 -14.363454 -6.300555 -14.713075 46.175760 -1.175611 -12.443077 -28.395255 -0.025045 -0.988612 2.717803 -0.016476 -0.597747 12.460511 3.749180 -0.581569 1.530801 4.058137 -0.251805 -5.342221 -7.604297 -2.043719 -15.219024 1.864079 -1.404174 8.248869 1.683461 -0.809674 5.020604 0.000000 0.000000 0.000000 -3.294984 16.411118 -35.587535 80.660114 -59.665081 51.920705 22.461586 -20.729302 -7.513773 0.000000 0.000000 0.000000 -7.125000 0.000000 0.000000 -3.735610 38.078680 -0.638778 0.000000 0.000000 0.000000 -8.374604 14.775520 35.048659 -113.443483 -57.807598 -80.151989 -15.393361 -1.278509 -25.797794 0.000000 0.000000 0.000000 7.125000 0.000000 0.000000 8.678197 3.614103 8.210544
12.484550 16.366131 -29.288358 2.014675 -4.227484 2.518647 0.000000 0.000000 0.000000 -6.835987 -4.248632 -30.993599 20.344705 19.996949 91.008002 0.002379 -2.072518 1.236618 0.102438 -0.493565 -1.367314 0.000000 0.000000 0.000000 33.553840 5.107313 -14.014508 -6.261511 -14.676550 46.021520 -1.176321 -12.533054 -28.479309 -0.019790 -0.853323 2.345706 0.005447 -0.591394 12.382422 3.750860 -0.571038 1.513701 4.044074 -0.247110 -5.317843 -7.599495 -2.106237 -15.199448 1.861258 -1.490749 8.148038 1.674222 -0.850247 4.989807 0.000000 0.000000 0.000000 -3.218769 16.674136 -35.723469 81.094429 -59.694262 52.295709 22.368573 -20.841504 -7.329146 0.000000 0.000000 0.000000 -7.125000 0.000000 0.000000 -3.796319 37.873960 -0.668756 0.000000 0.000000 0.000000 -8.358107 14.608940 35.158019 -114.191166 -57.653897 -80.783379 -15.576223 -1.681618 -25.753689 0.000000 0.000000 0.000000 7.125000 0.000000 0.000000 8.564293 3.631805 8.097588
12.468075 16.363547 -29.173787 2.003562 -4.063875 2.606470 0.000000 0.000000 0.000000 -6.715731 -4.482598 -31.685849 20.305057 19.997574 90.892052 -0.001131 -2.267827 0.269528 0.134958 -1.364347 -3.766671 0.000000 0.000000 0.000000 33.655361 4.840569 -13.665562 -6.222466 -14.640025 45.867280 -1.177032 -12.623031 -28.563364 -0.014536 -0.718035 1.973609 0.027371 -0.585041 12.304333 3.752539 -0.560507 1.496602 4.030011 -0.242416 -5.293464 -7.594692 -2.168756 -15.179872 1.858436 -1.577323 8.047207 1.664983 -0.890821 4.959011 0.000000 0.000000 0.000000 -3.142553 16.937154 -35.859404 81.528743 -59.723443 52.670714 22.275559 -20.953706 -7.144518 0.000000 0.000000 0.000000 -7.125000 0.000000 0.000000 -3.857029 37.669239 -0.698734 0.000000 0.000000 0.000000 -8.341611 14.442360 35.267378 -114.938849 -57.500195 -81.414768 -15.759084 -2.084727 -25.709583 0.000000 0.000000 0.000000 7.125000 0.000000 0.000000 8.450390 3.649508 7.984633
12.451600 16.360963 -29.059216 1.992450 -3.900267 2.694293 0.000000 0.000000 0.000000 -6.595474 -4.716564 -32.378099 20.265410 19.998198 90.776103 -0.004641 -2.463136 -0.697563 0.167477 -2.235129 -6.166028 0.000000 0.000000 0.000000 33.756881 4.573826 -13.316616 -6.183422 -14.603501 45.713040 -1.177743 -12.713008 -28.647418 -0.009281 -0.582746 1.601511 0.049294 -0.578688 12.226243 3.754219 -0.549976 1.479502 4.015948 -0.237721 -5.269085 -7.589890 -2.231275 -15.160295 1.855615 -1.663897 7.946376 1.655744 -0.931394 4.928215 0.000000 0.000000 0.000000 -3.066338 17.200171 -35.995338 81.963057 -59.752625 53.045718 22.182546 -21.065908 -6.959891 0.000000 0.000000 0.000000 -7.125000 0.000000 0.000000 -3.917739 37.464519 -0.728712 0.000000 0.000000 0.000000 -8.325114 14.275779 35.376737 -115.686533 -57.346493 -82.046157 -15.941945 -2.487835 -25.665478 0.000000 0.000000 0.000000 7.125000 0.000000 0.000000 8.336487 3.667210 7.871677
12.435494 16.360222 -28.942925 1.964757 -3.761026 2.769507 0.000000 0.000000 0.000000 -6.470027 -4.915243 -33.035561 20.206540 19.998638 90.603948 -0.005234 -2.558013 -1.408590 0.190289 -2.808924 -7.747399 0.000000 0.000000 0.000000 33.871379 4.299618 -12.926823 -6.135139 -14.557584 45.520894 -1.171120 -12.800865 -28.679030 -0.005792 -0.424312 1.165936 0.092090 -0.568779 12.159658 3.759032 -0.531443 1.457303 3.992455 -0.229324 -5.257109 -7.601406 -2.285400 -15.119140 1.870779 -1.739720 7.866011 1.655913 -0.966493 4.900221 0.000000 0.000000 0.000000 -2.991881 17.486612 -36.130167 82.442166 -59.781214 53.459634 22.099623 -21.187057 -6.790830 0.000000 0.000000 0.000000 -7.125000 0.000000 0.000000 -3.971452 37.277477 -0.756401 0.000000 0.000000 0.000000 -8.316666 14.122677 35.499935 -116.423449 -57.185727 -82.666619 -16.108518 -2.905650 -25.615214 0.000000 0.000000 0.000000 7.125000 0.000000 0.000000 8.231837 3.693429 7.766623
12.420053 16.362806 -28.823530 1.907149 -3.665751 2.821969 0.000000 0.000000 0.000000 -6.335212 -5.050251 -33.630253 20.112988 19.998746 90.330377 -0.000560 -2.471676 -1.657588 0.195587 -2.846848 -7.852838 0.000000 0.000000 0.000000 34.009295 4.011941 -12.463327 -6.070186 -14.494720 45.260353 -1.151263 -12.884898 -28.616016 -0.005491 -0.224114 0.615823 0.172549 -0.552455 12.113830 3.769499 -0.498471 1.425904 3.951946 -0.214249 -5.267511 -7.642368 -2.324380 -15.039048 1.918395 -1.796144 7.822573 1.673055 -0.991711 4.877286 0.000000 0.000000 0.000000 -2.920597 17.815314 -36.263000 83.002099 -59.808737 53.943761 22.034908 -21.324348 -6.649856 0.000000 0.000000 0.000000 -7.125000 0.000000 0.000000 -4.012543 37.122333 -0.779962 0.000000 0.000000 0.000000 -8.322739 13.993892 35.648102 -117.140939 -57.012212 -83.267362 -16.245702 -3.350001 -25.553836 0.000000 0.000000 0.000000 7.125000 0.000000 0.000000 8.143884 3.735015 7.675828
12.404611 16.365390 -28.704135 1.849540 -3.570476 2.874430 0.000000 0.000000 0.000000 -6.200397 -5.185260 -34.224945 20.019437 19.998854 90.056807 0.004113 -2.385338 -1.906586 0.200885 -2.884773 -7.958278 0.000000 0.000000 0.000000 34.147211 3.724265 -11.999832 -6.005234 -14.431857 44.999811 -1.131407 -12.968931 -28.553002 -0.005189 -0.023916 0.065710 0.253007 -0.536131 12.068001 3.779965 -0.465500 1.394505 3.911437 -0.199174 -5.277913 -7.683329 -2.363360 -14.958956 1.966011 -1.852568 7.779135 1.690198 -1.016930 4.854350 0.000000 0.000000 0.000000 -2.849313 18.144016 -36.395834 83.562033 -59.836260 54.427888 21.970192 -21.461639 -6.508882 0.000000 0.000000 0.000000 -7.125000 0.000000 0.000000 -4.053633 36.967188 -0.803522 0.000000 0.000000 0.000000 -8.328812 13.865108 35.796269 -117.858429 -56.838697 -83.868106 -16.382885 -3.794351 -25.492459 0.000000 0.000000 0.000000 7.125000 0.000000 0.000000 8.055932 3.776601 7.585033
